<svg width="36" height="36" viewBox="0 0 36 36" fill="none" xmlns="http://www.w3.org/2000/svg">
<rect width="36" height="36" rx="5" fill="#0B2747"/>
<g clip-path="url(#clip0_0_78)">
<path d="M6.0299 21.4396C6.03123 21.5042 6.01794 21.5684 5.99092 21.6276C5.96391 21.6869 5.92381 21.7398 5.87339 21.7828C5.77589 21.8722 5.64583 21.9217 5.51084 21.9208C5.44368 21.9238 5.3766 21.9135 5.31381 21.8905C5.25102 21.8674 5.19389 21.8322 5.14603 21.7869C5.09816 21.7417 5.0606 21.6875 5.03571 21.6276C5.01082 21.5678 4.99914 21.5037 5.00141 21.4393V16.8781C4.99991 16.8142 5.01232 16.7506 5.03785 16.6915C5.06339 16.6324 5.10148 16.5791 5.1497 16.5349C5.20005 16.4888 5.25952 16.4528 5.32461 16.4291C5.38969 16.4054 5.45908 16.3945 5.52867 16.3969C5.65983 16.3967 5.78573 16.4463 5.87876 16.5349C5.92809 16.5785 5.96718 16.6316 5.99343 16.6908C6.01968 16.75 6.0325 16.8138 6.03104 16.8781L6.0299 21.4396Z" fill="white"/>
<path d="M7.79283 16.3969C7.924 16.3967 8.04993 16.4463 8.14295 16.5349C8.19227 16.5785 8.23136 16.6317 8.25761 16.6908C8.28386 16.75 8.29667 16.8138 8.2952 16.8781V21.4396C8.29654 21.5042 8.28325 21.5684 8.25623 21.6276C8.22921 21.6869 8.18912 21.7398 8.1387 21.7828C8.04119 21.8723 7.91114 21.9218 7.77615 21.9208C7.70898 21.9239 7.6419 21.9135 7.57912 21.8905C7.51633 21.8674 7.45918 21.8322 7.41131 21.787C7.36345 21.7417 7.32589 21.6875 7.301 21.6276C7.27611 21.5678 7.26443 21.5037 7.26669 21.4393V16.8781C7.2652 16.8142 7.27765 16.7506 7.30318 16.6916C7.32871 16.6325 7.36679 16.5791 7.41501 16.5349C7.46523 16.489 7.52453 16.4531 7.58941 16.4294C7.65429 16.4057 7.72344 16.3946 7.79283 16.3969ZM7.76823 18.6932H11.4424V19.6009H7.76823V18.6932ZM11.4424 16.3969C11.5096 16.3938 11.5767 16.4041 11.6395 16.4271C11.7023 16.4502 11.7594 16.4854 11.8073 16.5307C11.8552 16.5759 11.8927 16.6302 11.9176 16.69C11.9425 16.7499 11.9542 16.814 11.9518 16.8784V21.4399C11.9536 21.5035 11.9417 21.5667 11.9169 21.6258C11.8921 21.6848 11.855 21.7383 11.8078 21.7831C11.7571 21.8298 11.6969 21.8662 11.631 21.8899C11.5651 21.9137 11.4949 21.9243 11.4246 21.9211C11.3596 21.9213 11.2952 21.9091 11.2352 21.8855C11.1751 21.8618 11.1205 21.827 11.0745 21.7831C11.0251 21.7395 10.986 21.6864 10.9598 21.6272C10.9335 21.568 10.9207 21.5042 10.9222 21.4399V16.8781C10.9209 16.8135 10.9341 16.7493 10.9612 16.6901C10.9882 16.6308 11.0283 16.5779 11.0787 16.5349C11.1765 16.4452 11.307 16.3957 11.4424 16.3969Z" fill="white"/>
<path d="M14.5319 22C14.2304 22.0024 13.9321 21.9404 13.6587 21.8186C13.3957 21.7025 13.1686 21.5231 12.9996 21.2978C12.9386 21.2172 12.9042 21.121 12.9008 21.0215C12.9 20.9583 12.914 20.8956 12.9418 20.8382C12.9697 20.7808 13.0106 20.7302 13.0616 20.69C13.1466 20.6095 13.2595 20.5618 13.3788 20.5558C13.4653 20.5569 13.5496 20.5815 13.622 20.6268C13.7011 20.6738 13.7743 20.7294 13.8402 20.7924C13.9349 20.8779 14.0453 20.9461 14.1656 20.9936C14.2834 21.0349 14.4082 21.0549 14.5336 21.0527C14.6956 21.0534 14.8549 21.0125 14.9949 20.9342C15.1353 20.8575 15.2541 20.7492 15.341 20.6187C15.4274 20.4919 15.4733 20.3438 15.4729 20.1925V16.8781C15.4716 16.8135 15.4849 16.7493 15.5119 16.6901C15.5389 16.6308 15.579 16.5779 15.6294 16.5349C15.7269 16.4455 15.857 16.3959 15.992 16.3969C16.0591 16.3938 16.1262 16.4042 16.189 16.4272C16.2518 16.4502 16.3089 16.4855 16.3568 16.5307C16.4047 16.576 16.4422 16.6302 16.4671 16.6901C16.492 16.7499 16.5037 16.814 16.5014 16.8784V20.1927C16.5031 20.508 16.4117 20.8172 16.2376 21.0847C16.0622 21.358 15.8192 21.5857 15.5301 21.7476C15.2277 21.9175 14.8825 22.0048 14.5319 22Z" fill="white"/>
<path d="M18.7661 21.4399C18.7674 21.5045 18.7541 21.5687 18.7271 21.6279C18.7001 21.6872 18.66 21.7401 18.6096 21.7831C18.5121 21.8725 18.382 21.922 18.2471 21.9211C18.1799 21.9242 18.1128 21.9138 18.05 21.8908C17.9872 21.8678 17.9301 21.8325 17.8823 21.7873C17.8344 21.742 17.7968 21.6878 17.7719 21.628C17.7471 21.5681 17.7354 21.504 17.7376 21.4396V16.9077C17.7362 16.8438 17.7486 16.7802 17.7741 16.7211C17.7996 16.6621 17.8377 16.6087 17.8859 16.5645C17.9363 16.5184 17.9958 16.4825 18.0608 16.4588C18.1259 16.4351 18.1953 16.4241 18.2649 16.4265C18.3961 16.4263 18.522 16.4759 18.615 16.5645C18.6643 16.6081 18.7034 16.6612 18.7297 16.7204C18.7559 16.7796 18.7687 16.8434 18.7673 16.9077L18.7661 21.4399Z" fill="white"/>
<path d="M23.8987 16.3969C24.0294 16.4004 24.1552 16.4448 24.257 16.5233C24.3135 16.5615 24.3592 16.6124 24.3901 16.6717C24.421 16.7309 24.4362 16.7965 24.4342 16.8627C24.4308 16.972 24.3904 17.0772 24.319 17.1625L21.1636 21.0452L21.0648 21.0137H23.8164C23.9476 21.0098 24.0756 21.0535 24.1747 21.136C24.2225 21.177 24.2602 21.2276 24.2852 21.2842C24.3101 21.3409 24.3217 21.4021 24.319 21.4635C24.3206 21.5248 24.3086 21.5857 24.2837 21.6421C24.2588 21.6986 24.2217 21.7493 24.1747 21.791C24.0779 21.878 23.9491 21.9248 23.8164 21.9211H20.1996C20.1308 21.9219 20.0625 21.9094 19.9988 21.8843C19.9351 21.8592 19.8773 21.8222 19.8289 21.7753C19.7812 21.7352 19.7426 21.6862 19.7157 21.6311C19.6887 21.5761 19.674 21.5164 19.6724 21.4556C19.6758 21.3463 19.7164 21.2411 19.7879 21.1558L22.9512 17.2572L23.0253 17.3043H20.5291C20.3971 17.3083 20.2686 17.263 20.1708 17.178C20.1231 17.1361 20.0854 17.0848 20.0605 17.0276C20.0356 16.9704 20.024 16.9086 20.0265 16.8467C20.0237 16.7853 20.0352 16.7241 20.0602 16.6674C20.0852 16.6108 20.1229 16.5602 20.1708 16.5192C20.2699 16.4366 20.3978 16.3929 20.5291 16.3969H23.8987Z" fill="white"/>
<path d="M28.5202 20.999C28.6529 20.9953 28.7817 21.0421 28.8785 21.1292C28.926 21.1721 28.9633 21.2242 28.9882 21.282C29.013 21.3398 29.0247 21.402 29.0226 21.4645C29.0242 21.5258 29.0122 21.5867 28.9874 21.6431C28.9625 21.6996 28.9254 21.7504 28.8785 21.792C28.7817 21.8791 28.6529 21.9259 28.5202 21.9222H25.8428C25.7764 21.9235 25.7104 21.9119 25.6488 21.8882C25.5872 21.8645 25.5312 21.8291 25.4843 21.7841C25.4373 21.7391 25.4004 21.6855 25.3756 21.6265C25.3508 21.5675 25.3388 21.5043 25.3402 21.4407V16.8781C25.3387 16.8142 25.3511 16.7506 25.3766 16.6915C25.4022 16.6324 25.4402 16.5791 25.4885 16.5349C25.5388 16.4888 25.5983 16.4528 25.6634 16.4291C25.7285 16.4054 25.7978 16.3945 25.8674 16.3969C25.9986 16.3967 26.1245 16.4463 26.2175 16.5349C26.2668 16.5785 26.3059 16.6316 26.3322 16.6908C26.3584 16.75 26.3712 16.8138 26.3698 16.8781V21.1319L26.1887 20.9977L28.5202 20.999Z" fill="white"/>
<path d="M31 21.4396C31.0013 21.5043 30.988 21.5684 30.961 21.6277C30.934 21.6869 30.8939 21.7399 30.8435 21.7829C30.746 21.8723 30.6159 21.9218 30.4809 21.9209C30.4138 21.9239 30.3467 21.9136 30.2839 21.8906C30.2211 21.8676 30.1639 21.8323 30.116 21.7871C30.0682 21.7418 30.0306 21.6876 30.0057 21.6277C29.9808 21.5679 29.9692 21.5037 29.9715 21.4394V16.8782C29.97 16.8142 29.9824 16.7507 30.008 16.6916C30.0335 16.6325 30.0716 16.5792 30.1198 16.5349C30.1701 16.4889 30.2296 16.4529 30.2947 16.4292C30.3598 16.4055 30.4292 16.3945 30.4988 16.3969C30.63 16.3967 30.7558 16.4464 30.8489 16.5349C30.8982 16.5785 30.9372 16.6317 30.9635 16.6909C30.9897 16.75 31.0026 16.8139 31.0011 16.8782L31 21.4396Z" fill="white"/>
<path d="M29.9689 14.0002H5.60227C5.44256 14.0003 5.28942 14.0611 5.17649 14.1693C5.06356 14.2775 5.00007 14.4242 5 14.5772V15.5174C5 15.5822 5.01333 15.6465 5.03925 15.7064C5.06516 15.7663 5.10314 15.8208 5.15103 15.8667C5.19891 15.9125 5.25577 15.9489 5.31833 15.9737C5.38089 15.9986 5.44795 16.0113 5.51567 16.0113C5.58339 16.0113 5.65043 15.9986 5.71299 15.9737C5.77556 15.9489 5.83241 15.9125 5.88029 15.8667C5.92818 15.8208 5.96616 15.7663 5.99208 15.7064C6.01799 15.6465 6.03132 15.5822 6.03132 15.5174V14.9879H29.9689V15.5174C29.9689 15.5822 29.9823 15.6465 30.0082 15.7064C30.0341 15.7663 30.0721 15.8208 30.12 15.8667C30.1679 15.9125 30.2247 15.9489 30.2873 15.9737C30.3498 15.9986 30.4169 16.0113 30.4846 16.0113C30.5523 16.0113 30.6194 15.9986 30.682 15.9737C30.7445 15.9489 30.8014 15.9125 30.8492 15.8667C30.8971 15.8208 30.9351 15.7663 30.961 15.7064C30.987 15.6465 31.0003 15.5822 31.0003 15.5174V14.5761C31.0002 14.423 30.9367 14.2763 30.8237 14.1681C30.7107 14.0599 30.5575 13.9991 30.3977 13.9991L29.9689 14.0002Z" fill="#009BF4"/>
</g>
<defs>
<clipPath id="clip0_0_78">
<rect width="26" height="8" fill="white" transform="translate(5 14)"/>
</clipPath>
</defs>
</svg>
