<svg width="102" height="32" viewBox="0 0 102 32" fill="none" xmlns="http://www.w3.org/2000/svg">
<path d="M4.04038 29.7584C4.04564 30.017 3.99349 30.2736 3.8875 30.5106C3.78151 30.7476 3.6242 30.9594 3.42641 31.1314C3.04389 31.4891 2.53366 31.6871 2.00409 31.6833C1.7406 31.6954 1.47745 31.6541 1.23112 31.562C0.984801 31.4698 0.760658 31.3288 0.572893 31.1479C0.385128 30.967 0.237774 30.75 0.140126 30.5106C0.0424777 30.2713 -0.00334211 30.0148 0.00553841 29.7573V11.5125C-0.000313635 11.2568 0.0483653 11.0026 0.148529 10.7662C0.248693 10.5299 0.398135 10.3165 0.587328 10.1396C0.784836 9.95531 1.01813 9.81148 1.27348 9.71668C1.52883 9.62187 1.80103 9.57797 2.07402 9.58761C2.58859 9.58682 3.08249 9.78536 3.44748 10.1396C3.64099 10.314 3.79434 10.5266 3.89733 10.7633C4.00031 11 4.05061 11.2554 4.04486 11.5125L4.04038 29.7584Z" fill="white"/>
<path d="M10.9565 9.58757C11.4711 9.58667 11.9651 9.78522 12.33 10.1396C12.5236 10.314 12.6769 10.5266 12.7799 10.7633C12.8829 11 12.9331 11.2554 12.9274 11.5125V29.7584C12.9326 30.017 12.8805 30.2736 12.7745 30.5106C12.6685 30.7476 12.5112 30.9594 12.3134 31.1313C11.9309 31.4891 11.4206 31.687 10.8911 31.6833C10.6276 31.6954 10.3644 31.6541 10.1181 31.562C9.87177 31.4698 9.64756 31.3288 9.45979 31.1479C9.27203 30.9669 9.12468 30.7499 9.02703 30.5106C8.92938 30.2713 8.88356 30.0148 8.89244 29.7573V11.5125C8.88659 11.2568 8.9354 11.0026 9.03557 10.7662C9.13573 10.5298 9.2851 10.3165 9.4743 10.1396C9.67131 9.95586 9.90395 9.81235 10.1585 9.71757C10.413 9.62278 10.6843 9.57859 10.9565 9.58757ZM10.86 18.7729H25.274V22.4036H10.86V18.7729ZM25.274 9.58757C25.5376 9.57528 25.8009 9.61647 26.0473 9.70857C26.2937 9.80066 26.5178 9.94167 26.7056 10.1226C26.8934 10.3036 27.0407 10.5207 27.1383 10.7601C27.2359 10.9995 27.2817 11.256 27.2726 11.5136V29.7595C27.2794 30.0139 27.2327 30.2669 27.1355 30.503C27.0383 30.7392 26.8926 30.9533 26.7075 31.1324C26.5085 31.3194 26.2725 31.4648 26.0141 31.5597C25.7556 31.6546 25.4799 31.6971 25.2041 31.6844C24.9493 31.685 24.6967 31.6365 24.4611 31.5418C24.2254 31.4471 24.0113 31.308 23.8307 31.1324C23.637 30.9581 23.4836 30.7455 23.3806 30.5088C23.2776 30.2721 23.2273 30.0166 23.2333 29.7595V11.5125C23.228 11.2539 23.2802 10.9973 23.3861 10.7603C23.4921 10.5233 23.6494 10.3115 23.8472 10.1396C24.2309 9.78091 24.7429 9.5828 25.274 9.58757Z" fill="white"/>
<path d="M37.3943 32C36.2115 32.0097 35.0413 31.7619 33.9689 31.2745C32.9369 30.8102 32.046 30.0925 31.383 29.1913C31.1438 28.869 31.0088 28.4841 30.9955 28.0862C30.9923 27.8331 31.0472 27.5826 31.1564 27.353C31.2655 27.1235 31.4261 26.9208 31.6261 26.76C31.9597 26.4382 32.4026 26.2472 32.8708 26.2232C33.2098 26.2277 33.5406 26.3262 33.8245 26.5072C34.135 26.6953 34.4223 26.9176 34.6806 27.1699C35.0525 27.5118 35.4852 27.7845 35.9575 27.9745C36.4196 28.1397 36.909 28.2198 37.4009 28.211C38.0367 28.2136 38.6616 28.05 39.2108 27.737C39.7616 27.4302 40.2275 26.9969 40.5686 26.4747C40.9074 25.9679 41.0873 25.3753 41.086 24.77V11.5126C41.0808 11.254 41.1329 10.9973 41.2389 10.7603C41.3449 10.5233 41.5022 10.3116 41.7 10.1397C42.0825 9.78193 42.5928 9.58388 43.1223 9.58764C43.3858 9.57551 43.649 9.61681 43.8953 9.70897C44.1416 9.80112 44.3658 9.94217 44.5536 10.1231C44.7414 10.3041 44.8887 10.521 44.9864 10.7603C45.084 10.9997 45.1298 11.2561 45.1209 11.5136V24.7711C45.1277 26.0319 44.7689 27.2688 44.0861 28.3389C43.398 29.4321 42.4446 30.3428 41.3103 30.9904C40.124 31.6703 38.7696 32.0194 37.3943 32Z" fill="white"/>
<path d="M54.0056 29.7596C54.0108 30.0181 53.9586 30.2747 53.8526 30.5117C53.7466 30.7487 53.5893 30.9605 53.3916 31.1325C53.009 31.4902 52.4988 31.6881 51.9693 31.6845C51.7058 31.6966 51.4427 31.6553 51.1963 31.5632C50.95 31.471 50.7259 31.33 50.5382 31.1491C50.3504 30.9681 50.203 30.7511 50.1054 30.5118C50.0077 30.2725 49.9619 30.016 49.9708 29.7585V11.6308C49.965 11.3751 50.0136 11.1209 50.1138 10.8846C50.214 10.6482 50.3633 10.4348 50.5525 10.2579C50.7501 10.0736 50.9834 9.92988 51.2388 9.83508C51.4941 9.74028 51.7662 9.6963 52.0392 9.70587C52.5538 9.70509 53.0478 9.90363 53.4128 10.2579C53.6063 10.4323 53.7596 10.6449 53.8626 10.8816C53.9656 11.1183 54.0158 11.3737 54.0101 11.6308L54.0056 29.7596Z" fill="white"/>
<path d="M74.1412 9.58767C74.6537 9.6015 75.1475 9.77902 75.5469 10.093C75.7683 10.2458 75.9477 10.4497 76.0689 10.6866C76.1902 10.9235 76.2496 11.186 76.2419 11.4508C76.2284 11.8879 76.0698 12.3088 75.79 12.6502L63.4111 28.1806L63.0236 28.0548H73.8181C74.333 28.0391 74.835 28.2138 75.2237 28.5439C75.4113 28.7079 75.5593 28.9104 75.6572 29.1369C75.7551 29.3634 75.8005 29.6082 75.79 29.8539C75.7963 30.099 75.7491 30.3426 75.6515 30.5685C75.5539 30.7944 75.408 30.9974 75.2237 31.1639C74.844 31.512 74.3387 31.6992 73.8181 31.6845H59.6293C59.3592 31.6875 59.0912 31.6375 58.8413 31.5372C58.5915 31.437 58.3649 31.2886 58.1749 31.101C57.9877 30.9409 57.8364 30.7446 57.7308 30.5246C57.6251 30.3045 57.5671 30.0654 57.5608 29.8224C57.5744 29.3852 57.7335 28.9642 58.0139 28.6231L70.4239 13.0287L70.7147 13.2173H60.9218C60.4039 13.2332 59.8999 13.0521 59.5162 12.712C59.329 12.5445 59.1813 12.3391 59.0835 12.1103C58.9858 11.8815 58.9402 11.6346 58.9499 11.3868C58.9392 11.1411 58.9844 10.8962 59.0823 10.6697C59.1802 10.4431 59.3285 10.2406 59.5162 10.0767C59.9048 9.74644 60.4069 9.57176 60.9218 9.58767H74.1412Z" fill="white"/>
<path d="M92.2716 27.9962C92.7921 27.9815 93.2975 28.1686 93.6772 28.5167C93.8634 28.6884 94.0101 28.8968 94.1075 29.1281C94.205 29.3593 94.251 29.6082 94.2424 29.8582C94.2489 30.1032 94.2019 30.3468 94.1044 30.5727C94.007 30.7986 93.8613 31.0016 93.6772 31.1682C93.2975 31.5164 92.7921 31.7036 92.2716 31.6887H81.768C81.5076 31.6941 81.2487 31.6479 81.007 31.553C80.7653 31.4581 80.5457 31.3164 80.3614 31.1365C80.1772 30.9566 80.0322 30.7421 79.9351 30.5061C79.8379 30.27 79.7907 30.0171 79.7961 29.7627V11.5125C79.7903 11.2568 79.839 11.0026 79.9391 10.7662C80.0393 10.5299 80.1887 10.3165 80.3778 10.1396C80.5754 9.95531 80.8087 9.81148 81.0641 9.71668C81.3194 9.62187 81.5916 9.57797 81.8645 9.58761C82.3791 9.58682 82.8731 9.78536 83.2381 10.1396C83.4315 10.3141 83.5848 10.5267 83.6878 10.7634C83.7908 11.0001 83.8411 11.2554 83.8354 11.5125V28.5276L83.1248 27.9908L92.2716 27.9962Z" fill="white"/>
<path d="M102 29.7584C102.005 30.017 101.953 30.2736 101.847 30.5105C101.741 30.7475 101.584 30.9593 101.386 31.1313C101.003 31.489 100.493 31.6869 99.9637 31.6833C99.7001 31.6956 99.437 31.6544 99.1906 31.5623C98.9442 31.4702 98.7199 31.3292 98.5321 31.1482C98.3443 30.9672 98.1969 30.7502 98.0994 30.5108C98.0018 30.2714 97.9561 30.0148 97.9652 29.7573V11.5125C97.9593 11.2568 98.008 11.0026 98.1082 10.7662C98.2083 10.5299 98.3577 10.3165 98.5469 10.1396C98.7444 9.95534 98.9778 9.81153 99.2331 9.71673C99.4885 9.62192 99.7607 9.57802 100.034 9.58759C100.548 9.58681 101.042 9.78534 101.407 10.1396C101.601 10.3141 101.754 10.5267 101.857 10.7634C101.96 11.0001 102.01 11.2554 102.004 11.5125L102 29.7584Z" fill="white"/>
<path d="M97.9551 -0.000181177H2.36274C1.73619 0.000106193 1.13542 0.243328 0.692387 0.676046C0.24935 1.10876 0.000294224 1.6956 0 2.30756V6.06842C0 6.3279 0.0523044 6.58485 0.153969 6.82457C0.255634 7.06429 0.404645 7.28211 0.592497 7.46559C0.780349 7.64906 1.00339 7.7946 1.24883 7.8939C1.49427 7.9932 1.75735 8.04428 2.02301 8.04428C2.28868 8.04428 2.55169 7.9932 2.79713 7.8939C3.04257 7.7946 3.26561 7.64906 3.45346 7.46559C3.64132 7.28211 3.79033 7.06429 3.89199 6.82457C3.99366 6.58485 4.04596 6.3279 4.04596 6.06842V3.95048H97.9551V6.06842C97.9551 6.3279 98.0075 6.58485 98.1092 6.82457C98.2109 7.06429 98.3598 7.28211 98.5477 7.46559C98.7355 7.64906 98.9585 7.7946 99.2039 7.8939C99.4494 7.9932 99.7124 8.04428 99.9781 8.04428C100.244 8.04428 100.507 7.9932 100.752 7.8939C100.998 7.7946 101.221 7.64906 101.409 7.46559C101.596 7.28211 101.745 7.06429 101.847 6.82457C101.949 6.58485 102.001 6.3279 102.001 6.06842V2.30322C102.001 1.69108 101.752 1.1041 101.308 0.671346C100.865 0.238597 100.264 -0.00451667 99.6372 -0.0045166L97.9551 -0.000181177Z" fill="#009BF4"/>
</svg>
