<svg width="163" height="46" viewBox="0 0 163 46" fill="none" xmlns="http://www.w3.org/2000/svg">
<path d="M161.554 32.3958C162.372 32.2651 162.929 31.496 162.798 30.6779L160.669 17.3469C160.538 16.5289 159.769 15.9717 158.951 16.1024C158.133 16.233 157.575 17.0022 157.706 17.8202L159.599 29.67L147.749 31.563C146.931 31.6937 146.374 32.4628 146.505 33.2808C146.636 34.0989 147.405 34.6561 148.223 34.5254L161.554 32.3958ZM2.4671 45.9249C29.6041 19.5088 54.6093 5.66194 79.9512 3.54276C105.284 1.42437 131.272 10.9989 160.437 32.1292L162.197 29.6998C132.725 8.34697 106.027 -1.64823 79.7012 0.553196C53.3852 2.75384 27.761 17.1163 0.374524 43.7752L2.4671 45.9249Z" fill="black"/>
</svg>
