<svg xmlns="http://www.w3.org/2000/svg" width="22" height="26" viewBox="0 0 22 26">
  <g id="svgexport-17" transform="translate(-5 -3)">
    <g id="user_account_people_man" data-name="user, account, people, man">
      <path id="Path_1" data-name="Path 1" d="M23.737,16.181A1,1,0,1,0,22.331,17.6,8.938,8.938,0,0,1,25,24c0,1.223-3.506,3-9,3s-9-1.778-9-3a8.938,8.938,0,0,1,2.635-6.363,1,1,0,1,0-1.414-1.414A10.927,10.927,0,0,0,5,24c0,3.248,5.667,5,11,5s11-1.752,11-5a10.92,10.92,0,0,0-3.263-7.819Z" fill="#fff"/>
      <path id="Path_2" data-name="Path 2" d="M16,17a7,7,0,1,0-7-7,7,7,0,0,0,7,7ZM16,5a5,5,0,1,1-5,5,5,5,0,0,1,5-5Z" fill="#fff"/>
    </g>
  </g>
</svg>
